#!OML:ASF F:\VICON\USERDATA\INSTALL\rory3\rory3.ASF
:FULLY-SPECIFIED
:DEGREES
126
root 1.4552424598136677 17.907205185144466 55.84346459735891 -3.740961307902389 2.843686093250003 0.0504154439065716
lfemur -4.3254816516425105 -4.22443521853248 -24.837164628142165
ltibia 27.231119183057338
lfoot -11.437392862121111 -2.0446014659079164
ltoes -13.32525375619894
rfemur -18.07080086069247 -2.293730781994406 21.959216093163228
rtibia 53.30164665016072
rfoot -9.054189007948006 -8.342111748281017
rtoes 4.206980296827949
lowerback 10.179247267167247 -1.2994726300333048 -2.0356074909527138
upperback -0.27319542326268637 -1.752102854910418 1.2227955287814114
thorax -6.0704385075130425 -0.8245305313671333 2.3819428636846105
lowerneck -16.76789423726238 -3.8016982295868313 -1.5967577286174386
upperneck 21.13222667779174 -5.334976664319367 2.1861048664979488
head 9.612252651132517 -2.3530477154713667 0.3214944700916506
lclavicle -2.5364583680419274e-15 -2.749155453049041e-15
lhumerus -29.239357147095472 0.956757474037663 81.73912311410335
lradius 26.589977827673486
lwrist 9.580678524061284
lhand -29.604612517948496 18.3860083111401
lfingers nan
lthumb -2.6047551431932927 48.724202011926
rclavicle -2.628049781160015e-15 -2.8006003227069507e-15
rhumerus -30.917046035642223 -19.97744880492244 -75.78873717441668
rradius 33.65459608457437
rwrist 1.5265941707471602
rhand -17.56328098815139 22.274968405028215
rfingers nan
rthumb 8.646830037180433 -7.560106785159454
127
root 1.5071866997291619 17.92315549998666 58.509707928982635 -3.534099346850015 2.8145678467466198 0.9097265531916827
lfemur -2.34802326631191 -4.430428304072537 -25.79373083143351
ltibia 27.258619095735973
lfoot -11.561117145076974 -2.703607987935801
ltoes -13.457907175480265
rfemur -19.12799058718351 -2.264154289594609 21.427992296056498
rtibia 53.04613286846527
rfoot -9.39920327772042 -7.7997777873058665
rtoes 3.801452779089712
lowerback 10.146799962696058 -1.5256986305433216 -2.7215286459533417
upperback -0.2669945703665644 -2.200798307563995 1.1582861938010471
thorax -6.043898702415759 -1.0444999647065247 2.8083245598029087
lowerneck -16.84853154238787 -3.7349807400065758 -1.614155310774557
upperneck 21.14374135431118 -5.21268907865362 2.1252623677235265
head 9.628387684273905 -2.3090295529471696 0.3230865873028521
lclavicle -2.541392313244501e-15 -2.750532936162972e-15
lhumerus -29.170385316252357 0.9734054694851242 81.66097981407088
lradius 26.570073418524483
lwrist 9.327907590993577
lhand -29.503784203258228 18.668560544500874
lfingers nan
lthumb -2.5567163674036477 48.86919921689422
rclavicle -2.6337758070271287e-15 -2.800318607364658e-15
rhumerus -30.978677658421812 -19.919791881893964 -75.92708343047386
rradius 33.568013778523465
rwrist 1.1568472985249798
rhand -17.574981751626204 22.258841492232083
rfingers nan
rthumb 8.63725197052806 -7.575554579496837
128
root 1.5076045758592134 17.922168940410565 56.914532864043565 -3.4508507770260692 2.157542298084599 0.3537462754406371
lfemur -0.3628127075434726 -4.383108719483537 -25.38698946480286
ltibia 27.148906851273054
lfoot -11.1311605551826 -2.577960165286452
ltoes -13.470015760232272
rfemur -20.294244528024027 -1.805261323978725 22.497266567261356
rtibia 52.25857198172496
rfoot -9.907302206722642 -7.523399177472418
rtoes 3.231947755916828
lowerback 10.088968187183617 -1.614627404718329 -2.411254523831028
upperback -0.29506219697033803 -2.318351492906837 1.3011628190427502
thorax -6.020383998342523 -1.093475199919175 3.104846683337729
lowerneck -16.89324396008653 -3.6730972429611137 -1.6417869680905515
upperneck 21.200429571205483 -5.095001574213673 2.037638765354245
head 9.654410869167565 -2.2677172049175005 0.3162019924249404
lclavicle -2.547456291986684e-15 -2.752518210041867e-15
lhumerus -29.0311489271441 1.0970389097209008 81.61245252996603
lradius 26.454383439639678
lwrist 9.110965773468918
lhand -29.548179946556477 18.57985906193227
lfingers nan
lthumb -2.4730162002074265 49.081219135908846
rclavicle -2.6388735218849172e-15 -2.7994014303571385e-15
rhumerus -30.948460144538984 -19.841724609109505 -76.03796384177393
rradius 33.453782067603456
rwrist 1.2336496908101107
rhand -17.556618266118257 22.314075145090776
rfingers nan
rthumb 8.653619541005392 -7.497095030281707
129
root 1.5146949575953501 17.9246341066258 56.88179855198779 -3.287257463397205 1.5212442913164226 -0.3910730282374182
lfemur 1.526910133730027 -4.17693282598681 -24.569689221265463
ltibia 26.975327477402857
lfoot -10.64381299689704 -2.862077254266467
ltoes -14.234385924195474
rfemur -21.358770468479857 -1.0453974149495222 23.76450387549211
rtibia 51.086779129127734
rfoot -10.42607916739425 -7.393756905595952
rtoes 2.416332526059817
lowerback 10.037961358384898 -1.7101525654804768 -1.9509638882115172
upperback -0.35660310345115315 -2.4174871456971347 1.5087462390845219
thorax -6.024934618383899 -1.1270152947520613 3.3578952568582894
lowerneck -16.918648226182405 -3.615746346919795 -1.6735142180474167
upperneck 21.29701519017736 -4.984036120974793 1.9322820092005266
head 9.689341078658112 -2.2298534689529776 0.3031242011919489
lclavicle -2.5518012606074867e-15 -2.753925001489421e-15
lhumerus -28.805988769130614 1.2012024660717802 81.62452044491235
lradius 26.27699112564261
lwrist 9.09892905240902
lhand -29.460327763338107 18.848743082896785
lfingers nan
lthumb -2.421402995180623 49.226564984032365
rclavicle -2.6439170009152233e-15 -2.7996717630834944e-15
rhumerus -30.9052788207327 -19.822616508064282 -76.15236302426761
rradius 33.32479172278935
rwrist 1.6381148574583415
rhand -17.55446893565939 22.37905222555812
rfingers nan
rthumb 8.65763926678884 -7.393422543134571
130
root 1.549779932522258 17.941106234647027 58.700390206077756 -3.094136377479377 1.2290761930053729 -0.4419834884749956
lfemur 3.387646367383912 -4.01796077973616 -24.353991367549288
ltibia 26.757104197019046
lfoot -9.429120631629637 -2.903894182985218
ltoes -15.183793483128337
rfemur -21.968817954639384 -0.5274714287122597 24.115343603517548
rtibia 49.33815967245103
rfoot -10.972508071620586 -7.406839494477559
rtoes 1.47421808582487
lowerback 9.988405804074725 -1.8379628797370342 -1.9447465640443398
upperback -0.4013664575831179 -2.5720076921731776 1.6584469619129194
thorax -6.021830528675329 -1.201853087371521 3.587762687186852
lowerneck -16.93062371503643 -3.5667667461798365 -1.7049429872901263
upperneck 21.40971971935951 -4.887362768031733 1.8210416457763308
head 9.725670692877442 -2.1980258629363867 0.2855508960319222
lclavicle -2.556124712299239e-15 -2.7555675714598845e-15
lhumerus -28.58396693403117 1.1769116568255136 81.68499313456674
lradius 26.077221481288845
lwrist 9.155373156492592
lhand -29.541067370567657 18.675632395442022
lfingers nan
lthumb -2.3761188739426666 49.35393940907804
rclavicle -2.6491240837885384e-15 -2.800534845251376e-15
rhumerus -30.88221523777074 -19.9000349671019 -76.25781304015739
rradius 33.19421355165939
rwrist 2.1681471102510286
rhand -17.547669472819997 22.453941314606258
rfingers nan
rthumb 8.656420159893186 -7.293123989774352
